<svg xmlns="http://www.w3.org/2000/svg" xmlns:xlink="http://www.w3.org/1999/xlink" width="500" zoomAndPan="magnify" viewBox="0 0 375 374.999991" height="500" preserveAspectRatio="xMidYMid meet" version="1.0"><defs><g/><clipPath id="51a88cf01f"><path d="M 232.347656 242.449219 L 280.347656 242.449219 L 280.347656 288 L 232.347656 288 Z M 232.347656 242.449219 " clip-rule="nonzero"/></clipPath></defs><g fill="#292929" fill-opacity="1"><g transform="translate(3.774323, 267.619787)"><g><path d="M 46.09375 0 L 8.4375 0 L 8.4375 -2.921875 C 8.875 -2.921875 9.523438 -3.191406 10.390625 -3.734375 C 11.253906 -4.273438 12.0625 -5.460938 12.8125 -7.296875 C 13.570312 -9.140625 14.273438 -11.679688 14.921875 -14.921875 C 15.578125 -18.171875 15.90625 -22.5 15.90625 -27.90625 L 15.90625 -206.4375 C 15.039062 -212.0625 13.90625 -215.738281 12.5 -217.46875 C 11.09375 -219.195312 9.957031 -220.0625 9.09375 -220.0625 L 8.109375 -222.984375 L 38.625 -234.34375 L 38.625 -27.90625 C 38.625 -22.5 38.894531 -18.171875 39.4375 -14.921875 C 39.976562 -11.679688 40.679688 -9.140625 41.546875 -7.296875 C 42.410156 -5.460938 43.273438 -4.273438 44.140625 -3.734375 C 45.003906 -3.191406 45.65625 -2.921875 46.09375 -2.921875 Z M 46.09375 0 "/></g></g></g><g fill="#292929" fill-opacity="1"><g transform="translate(52.451454, 267.619787)"><g><path d="M 8.109375 -144.765625 L 38.625 -156.453125 L 38.625 -27.90625 C 38.625 -22.5 38.894531 -18.171875 39.4375 -14.921875 C 39.976562 -11.679688 40.679688 -9.140625 41.546875 -7.296875 C 42.410156 -5.460938 43.273438 -4.273438 44.140625 -3.734375 C 45.003906 -3.191406 45.65625 -2.921875 46.09375 -2.921875 L 46.09375 0 L 8.4375 0 L 8.4375 -2.921875 C 9.082031 -2.921875 9.835938 -3.191406 10.703125 -3.734375 C 11.578125 -4.273438 12.390625 -5.460938 13.140625 -7.296875 C 13.898438 -9.140625 14.601562 -11.679688 15.25 -14.921875 C 15.90625 -18.171875 16.234375 -22.5 16.234375 -27.90625 L 16.234375 -128.203125 C 15.367188 -134.046875 14.175781 -137.832031 12.65625 -139.5625 C 11.144531 -141.300781 9.957031 -142.171875 9.09375 -142.171875 Z M 25 -182.734375 C 20.664062 -182.734375 17.035156 -184.191406 14.109375 -187.109375 C 11.191406 -190.035156 9.734375 -193.664062 9.734375 -198 C 9.734375 -202.320312 11.191406 -205.941406 14.109375 -208.859375 C 17.035156 -211.785156 20.664062 -213.25 25 -213.25 C 29.320312 -213.25 32.941406 -211.785156 35.859375 -208.859375 C 38.785156 -205.941406 40.25 -202.320312 40.25 -198 C 40.25 -193.664062 38.785156 -190.035156 35.859375 -187.109375 C 32.941406 -184.191406 29.320312 -182.734375 25 -182.734375 Z M 25 -182.734375 "/></g></g></g><g fill="#292929" fill-opacity="1"><g transform="translate(101.128585, 267.619787)"><g><path d="M 120.421875 -98.015625 C 120.421875 -102.566406 119.175781 -107.492188 116.6875 -112.796875 C 114.195312 -118.097656 110.785156 -123.289062 106.453125 -128.375 C 102.128906 -133.457031 97.207031 -138 91.6875 -142 C 86.175781 -146 80.441406 -148.921875 74.484375 -150.765625 C 68.535156 -152.609375 62.585938 -153.039062 56.640625 -152.0625 C 50.691406 -151.09375 45.335938 -148.117188 40.578125 -143.140625 C 36.023438 -138.597656 33.859375 -133.242188 34.078125 -127.078125 C 34.296875 -120.910156 36.894531 -115.335938 41.875 -110.359375 C 45.550781 -106.679688 51.015625 -103 58.265625 -99.3125 C 65.515625 -95.632812 75.085938 -92.285156 86.984375 -89.265625 C 95.859375 -86.878906 103.320312 -84.0625 109.375 -80.8125 C 115.4375 -77.570312 120.414062 -74.113281 124.3125 -70.4375 C 130.582031 -64.15625 134.257812 -57.117188 135.34375 -49.328125 C 136.425781 -41.546875 134.804688 -33.757812 130.484375 -25.96875 C 128.316406 -22.289062 125.769531 -18.878906 122.84375 -15.734375 C 119.925781 -12.597656 116.738281 -10.054688 113.28125 -8.109375 C 109.8125 -5.734375 105.96875 -3.734375 101.75 -2.109375 C 97.53125 -0.484375 93.148438 0.8125 88.609375 1.78125 C 84.066406 2.757812 79.519531 3.410156 74.96875 3.734375 C 70.425781 4.054688 66.101562 4.109375 62 3.890625 C 54.207031 3.242188 46.035156 1.570312 37.484375 -1.125 C 28.941406 -3.832031 20.019531 -8 10.71875 -13.625 L 8.109375 -15.25 L 15.90625 -51.28125 L 18.5 -50.640625 C 18.070312 -48.691406 18.503906 -46.203125 19.796875 -43.171875 C 21.097656 -40.140625 22.722656 -37 24.671875 -33.75 C 26.617188 -30.507812 28.671875 -27.535156 30.828125 -24.828125 C 32.992188 -22.117188 34.835938 -20.117188 36.359375 -18.828125 C 40.679688 -14.492188 45.4375 -11.082031 50.625 -8.59375 C 55.820312 -6.113281 61.234375 -4.332031 66.859375 -3.25 C 72.273438 -2.164062 77.628906 -1.726562 82.921875 -1.9375 C 88.222656 -2.15625 93.253906 -2.914062 98.015625 -4.21875 C 100.617188 -4.863281 103 -5.671875 105.15625 -6.640625 C 107.320312 -7.617188 109.597656 -8.757812 111.984375 -10.0625 C 114.140625 -11.570312 116.085938 -13.195312 117.828125 -14.9375 C 119.335938 -16.664062 120.6875 -18.503906 121.875 -20.453125 C 123.070312 -22.398438 123.882812 -24.453125 124.3125 -26.609375 C 124.75 -30.078125 124.535156 -33.21875 123.671875 -36.03125 C 122.148438 -40.132812 119.601562 -43.644531 116.03125 -46.5625 C 112.46875 -49.488281 108.304688 -51.976562 103.546875 -54.03125 C 98.785156 -56.09375 93.644531 -57.878906 88.125 -59.390625 C 82.601562 -60.910156 77.140625 -62.535156 71.734375 -64.265625 C 61.347656 -67.296875 52.203125 -71.625 44.296875 -77.25 C 36.398438 -82.875 30.664062 -89.3125 27.09375 -96.5625 C 23.53125 -103.8125 22.453125 -111.546875 23.859375 -119.765625 C 25.265625 -127.992188 30.1875 -136.328125 38.625 -144.765625 C 44.25 -150.609375 51.660156 -154.234375 60.859375 -155.640625 C 70.054688 -157.046875 79.359375 -157.046875 88.765625 -155.640625 C 98.179688 -154.234375 106.726562 -151.632812 114.40625 -147.84375 C 122.09375 -144.0625 127.34375 -139.789062 130.15625 -135.03125 L 122.046875 -98.015625 Z M 120.421875 -98.015625 "/></g></g></g><g fill="#292929" fill-opacity="1"><g transform="translate(239.698925, 267.619787)"><g><path d="M 8.109375 -156.453125 C 9.410156 -156.453125 11.789062 -156.773438 15.25 -157.421875 C 18.71875 -158.066406 22.234375 -159.847656 25.796875 -162.765625 C 29.367188 -165.691406 32.507812 -170.128906 35.21875 -176.078125 C 37.925781 -182.035156 39.28125 -190.3125 39.28125 -200.90625 L 62 -200.90625 C 62 -187.925781 59.398438 -177.921875 54.203125 -170.890625 C 49.015625 -163.859375 41.222656 -159.046875 30.828125 -156.453125 L 79.515625 -156.453125 L 79.515625 -154.171875 L 51.28125 -154.171875 L 51.28125 -60.375 C 51.28125 -56.476562 51.492188 -51.769531 51.921875 -46.25 C 52.359375 -40.726562 53.28125 -35.316406 54.6875 -30.015625 C 56.09375 -24.722656 58.148438 -19.910156 60.859375 -15.578125 C 63.566406 -11.253906 67.191406 -8.332031 71.734375 -6.8125 C 76.273438 -5.300781 80.707031 -5.300781 85.03125 -6.8125 C 89.363281 -8.332031 93.3125 -10.710938 96.875 -13.953125 C 100.445312 -17.203125 103.640625 -20.878906 106.453125 -24.984375 C 109.273438 -29.097656 111.550781 -32.992188 113.28125 -36.671875 C 114.570312 -39.703125 115.8125 -42.894531 117 -46.25 C 118.195312 -49.601562 119.335938 -53.117188 120.421875 -56.796875 L 123.34375 -56.796875 C 122.257812 -52.898438 121.117188 -49.164062 119.921875 -45.59375 C 118.734375 -42.03125 117.382812 -38.734375 115.875 -35.703125 C 113.925781 -31.160156 111.488281 -26.722656 108.5625 -22.390625 C 105.644531 -18.066406 102.347656 -14.117188 98.671875 -10.546875 C 94.992188 -6.972656 90.878906 -4.101562 86.328125 -1.9375 C 81.785156 0.21875 76.8125 1.296875 71.40625 1.296875 C 62.53125 1.296875 55.332031 -0.539062 49.8125 -4.21875 C 44.300781 -7.894531 39.976562 -12.65625 36.84375 -18.5 C 33.707031 -24.34375 31.539062 -30.941406 30.34375 -38.296875 C 29.15625 -45.648438 28.5625 -53.007812 28.5625 -60.375 L 28.5625 -134.375 C 28.5625 -139.78125 26.722656 -144.429688 23.046875 -148.328125 C 19.367188 -152.222656 14.390625 -154.171875 8.109375 -154.171875 Z M 8.109375 -156.453125 "/></g></g></g><g clip-path="url(#51a88cf01f)"><path fill="#f2454f" d="M 273.414062 242.449219 L 239.28125 242.449219 C 235.457031 242.449219 232.355469 245.570312 232.355469 249.421875 L 232.355469 271.082031 C 232.355469 274.933594 235.457031 278.058594 239.28125 278.058594 L 246.140625 278.058594 C 246.882812 278.058594 247.585938 278.394531 248.054688 278.972656 L 254.699219 287.152344 C 255.550781 288.199219 257.140625 288.199219 257.992188 287.152344 L 264.636719 278.972656 C 265.109375 278.394531 265.808594 278.058594 266.550781 278.058594 L 273.414062 278.058594 C 277.238281 278.058594 280.335938 274.933594 280.335938 271.082031 L 280.335938 249.421875 C 280.335938 245.570312 277.238281 242.449219 273.414062 242.449219 Z M 273.414062 242.449219 " fill-opacity="1" fill-rule="nonzero"/></g><path fill="#ffffff" d="M 266.125 252.867188 C 263.707031 250.433594 259.777344 250.433594 257.363281 252.867188 L 256.347656 253.890625 L 255.332031 252.867188 C 252.914062 250.433594 248.984375 250.433594 246.570312 252.867188 C 244.152344 255.300781 244.152344 259.257812 246.570312 261.691406 L 256.347656 271.542969 L 266.125 261.691406 C 268.539062 259.257812 268.539062 255.300781 266.125 252.867188 Z M 266.125 252.867188 " fill-opacity="1" fill-rule="nonzero"/><g fill="#292929" fill-opacity="1"><g transform="translate(22.315326, 351.053286)"><g><path d="M 48.3125 -6.15625 C 49.351562 -5.21875 49.875 -4.207031 49.875 -3.125 C 49.875 -2.425781 49.601562 -1.726562 49.0625 -1.03125 C 48.519531 -0.34375 47.800781 0 46.90625 0 C 46.0625 0 45.367188 -0.195312 44.828125 -0.59375 L 38 -6.234375 C 33.351562 -1.578125 27.515625 0.75 20.484375 0.75 C 17.066406 0.75 13.960938 -0.03125 11.171875 -1.59375 C 8.378906 -3.15625 6.191406 -5.207031 4.609375 -7.75 C 3.023438 -10.300781 2.234375 -12.988281 2.234375 -15.8125 C 2.234375 -19.269531 3.144531 -22.347656 4.96875 -25.046875 C 6.800781 -27.742188 9.550781 -29.859375 13.21875 -31.390625 C 12.226562 -32.828125 11.484375 -34.1875 10.984375 -35.46875 C 10.492188 -36.757812 10.25 -38.097656 10.25 -39.484375 C 10.25 -41.910156 10.863281 -44.125 12.09375 -46.125 C 13.332031 -48.132812 15.113281 -49.734375 17.4375 -50.921875 C 19.769531 -52.109375 22.46875 -52.703125 25.53125 -52.703125 C 28.945312 -52.703125 31.953125 -52.09375 34.546875 -50.875 C 37.148438 -49.664062 38.921875 -48.117188 39.859375 -46.234375 C 40.203125 -45.546875 40.375 -44.78125 40.375 -43.9375 C 40.375 -43.144531 40.085938 -42.476562 39.515625 -41.9375 C 38.953125 -41.394531 38.203125 -41.125 37.265625 -41.125 C 36.171875 -41.125 35.378906 -41.519531 34.890625 -42.3125 C 33.847656 -43.789062 32.570312 -44.890625 31.0625 -45.609375 C 29.550781 -46.328125 27.707031 -46.6875 25.53125 -46.6875 C 23.007812 -46.6875 21.066406 -46.039062 19.703125 -44.75 C 18.347656 -43.46875 17.671875 -41.8125 17.671875 -39.78125 C 17.671875 -38 18.3125 -36.191406 19.59375 -34.359375 C 20.882812 -32.535156 22.71875 -30.335938 25.09375 -27.765625 L 26.421875 -26.28125 C 29.296875 -23.113281 32.8125 -19.671875 36.96875 -15.953125 C 38.25 -18.484375 39.140625 -21.253906 39.640625 -24.265625 C 39.878906 -25.703125 40.867188 -26.421875 42.609375 -26.421875 C 43.597656 -26.421875 44.398438 -26.007812 45.015625 -25.1875 C 45.628906 -24.375 45.863281 -23.425781 45.71875 -22.34375 C 45.070312 -18.28125 43.835938 -14.664062 42.015625 -11.5 C 44.035156 -9.71875 46.132812 -7.9375 48.3125 -6.15625 Z M 21.890625 -5.9375 C 26.242188 -5.9375 29.984375 -7.445312 33.109375 -10.46875 C 27.804688 -15.113281 23.328125 -19.515625 19.671875 -23.671875 C 18.972656 -24.421875 18.15625 -25.363281 17.21875 -26.5 C 14.394531 -25.65625 12.390625 -24.414062 11.203125 -22.78125 C 10.015625 -21.15625 9.421875 -19.175781 9.421875 -16.84375 C 9.421875 -14.914062 9.863281 -13.132812 10.75 -11.5 C 11.644531 -9.875 13.03125 -8.539062 14.90625 -7.5 C 16.789062 -6.457031 19.117188 -5.9375 21.890625 -5.9375 Z M 21.890625 -5.9375 "/></g></g></g><g fill="#292929" fill-opacity="1"><g transform="translate(95.259845, 351.053286)"><g/></g></g><g fill="#292929" fill-opacity="1"><g transform="translate(137.039326, 351.053286)"><g><path d="M 34.8125 -6.90625 C 35.851562 -6.90625 36.707031 -6.582031 37.375 -5.9375 C 38.039062 -5.289062 38.375 -4.453125 38.375 -3.421875 C 38.375 -2.429688 38.039062 -1.613281 37.375 -0.96875 C 36.707031 -0.320312 35.851562 0 34.8125 0 L 9.71875 0 C 8.6875 0 7.832031 -0.34375 7.15625 -1.03125 C 6.488281 -1.726562 6.15625 -2.570312 6.15625 -3.5625 L 6.15625 -48.390625 C 6.15625 -49.378906 6.5 -50.21875 7.1875 -50.90625 C 7.882812 -51.601562 8.78125 -51.953125 9.875 -51.953125 C 10.863281 -51.953125 11.71875 -51.601562 12.4375 -50.90625 C 13.15625 -50.21875 13.515625 -49.378906 13.515625 -48.390625 L 13.515625 -6.90625 Z M 34.8125 -6.90625 "/></g></g></g><g fill="#292929" fill-opacity="1"><g transform="translate(199.076096, 351.053286)"><g><path d="M 13.515625 -3.640625 C 13.515625 -2.597656 13.140625 -1.726562 12.390625 -1.03125 C 11.648438 -0.34375 10.785156 0 9.796875 0 C 8.710938 0 7.832031 -0.34375 7.15625 -1.03125 C 6.488281 -1.726562 6.15625 -2.597656 6.15625 -3.640625 L 6.15625 -48.390625 C 6.15625 -49.378906 6.5 -50.21875 7.1875 -50.90625 C 7.882812 -51.601562 8.78125 -51.953125 9.875 -51.953125 C 10.863281 -51.953125 11.71875 -51.601562 12.4375 -50.90625 C 13.15625 -50.21875 13.515625 -49.378906 13.515625 -48.390625 Z M 13.515625 -3.640625 "/></g></g></g><g fill="#292929" fill-opacity="1"><g transform="translate(239.96515, 351.053286)"><g><path d="M 45.640625 -6.015625 C 46.191406 -5.316406 46.46875 -4.5 46.46875 -3.5625 C 46.46875 -2.476562 46.054688 -1.585938 45.234375 -0.890625 C 44.421875 -0.191406 43.492188 0.15625 42.453125 0.15625 C 41.460938 0.15625 40.597656 -0.289062 39.859375 -1.1875 L 21.828125 -24.421875 L 13.515625 -16.546875 L 13.515625 -3.640625 C 13.515625 -2.597656 13.164062 -1.726562 12.46875 -1.03125 C 11.78125 -0.34375 10.890625 0 9.796875 0 C 8.710938 0 7.832031 -0.34375 7.15625 -1.03125 C 6.488281 -1.726562 6.15625 -2.597656 6.15625 -3.640625 L 6.15625 -48.390625 C 6.15625 -49.378906 6.5 -50.21875 7.1875 -50.90625 C 7.882812 -51.601562 8.78125 -51.953125 9.875 -51.953125 C 10.957031 -51.953125 11.832031 -51.617188 12.5 -50.953125 C 13.175781 -50.285156 13.515625 -49.429688 13.515625 -48.390625 L 13.515625 -25.3125 L 39.859375 -50.84375 C 40.796875 -51.6875 41.734375 -52.109375 42.671875 -52.109375 C 43.566406 -52.109375 44.332031 -51.734375 44.96875 -50.984375 C 45.613281 -50.242188 45.9375 -49.453125 45.9375 -48.609375 C 45.9375 -47.867188 45.59375 -47.101562 44.90625 -46.3125 L 27.3125 -29.6875 Z M 45.640625 -6.015625 "/></g></g></g><g fill="#292929" fill-opacity="1"><g transform="translate(310.386788, 351.053286)"><g><path d="M 35.546875 -6.828125 C 36.585938 -6.828125 37.441406 -6.476562 38.109375 -5.78125 C 38.773438 -5.09375 39.109375 -4.28125 39.109375 -3.34375 C 39.109375 -2.351562 38.773438 -1.546875 38.109375 -0.921875 C 37.441406 -0.304688 36.585938 0 35.546875 0 L 9.71875 0 C 8.726562 0 7.882812 -0.34375 7.1875 -1.03125 C 6.5 -1.726562 6.15625 -2.570312 6.15625 -3.5625 L 6.15625 -48.390625 C 6.15625 -49.378906 6.5 -50.21875 7.1875 -50.90625 C 7.882812 -51.601562 8.726562 -51.953125 9.71875 -51.953125 L 35.546875 -51.953125 C 36.585938 -51.953125 37.441406 -51.628906 38.109375 -50.984375 C 38.773438 -50.347656 39.109375 -49.507812 39.109375 -48.46875 C 39.109375 -47.476562 38.773438 -46.671875 38.109375 -46.046875 C 37.441406 -45.429688 36.585938 -45.125 35.546875 -45.125 L 13.515625 -45.125 L 13.515625 -29.984375 L 32.21875 -29.984375 C 33.25 -29.984375 34.097656 -29.660156 34.765625 -29.015625 C 35.441406 -28.378906 35.78125 -27.566406 35.78125 -26.578125 C 35.78125 -25.535156 35.441406 -24.71875 34.765625 -24.125 C 34.097656 -23.53125 33.25 -23.234375 32.21875 -23.234375 L 13.515625 -23.234375 L 13.515625 -6.828125 Z M 35.546875 -6.828125 "/></g></g></g></svg>